<?xml version="1.0" encoding="utf-8"?>
<!-- Generator: Adobe Illustrator 16.0.0, SVG Export Plug-In . SVG Version: 6.00 Build 0)  -->
<!DOCTYPE svg PUBLIC "-//W3C//DTD SVG 1.1//EN" "http://www.w3.org/Graphics/SVG/1.1/DTD/svg11.dtd">
<svg version="1.1" id="Layer_1" xmlns="http://www.w3.org/2000/svg" xmlns:xlink="http://www.w3.org/1999/xlink" x="0px" y="0px"
	 width="100px" height="100px" viewBox="0 0 100 100" enable-background="new 0 0 100 100" xml:space="preserve">
<g>
	<path fill="#929497" d="M87.075,58.895l1.99,8.543c0,0-27.717,26.034-67.234,9.891l-0.491-2.782
		C21.341,74.546,61.955,82.717,87.075,58.895z"/>
	<path fill="#B98252" d="M87.075,58.895C75.69,21.063,46.052,17.923,46.052,17.923C18.142,33.6,22.646,73.452,22.646,73.452
		s13.865,4.402,35.116,0.703C73.216,71.467,87.075,58.895,87.075,58.895z"/>
	<path fill="#E6E7E8" d="M21.099,52.718c0,0-14.129,8.282-19.447-1.537c0,0-0.335,30.47,18.365,20.251
		C20.018,71.432,18.743,62.244,21.099,52.718z"/>
	<path fill="#E6E7E8" d="M87.885,57.09c0,0-2.921-10.172-7.222-17.25c0,0,8.033-5.267,7.457-16.054
		C88.12,23.786,111.485,48.216,87.885,57.09z"/>
	<g>
		<path d="M87.075,58.895l-1.331-3.582l-0.732-1.76c-0.252-0.583-0.468-1.179-0.75-1.746l-0.802-1.728
			c-0.136-0.287-0.264-0.575-0.404-0.86l-0.442-0.842l-0.88-1.682c-0.299-0.555-0.629-1.094-0.941-1.646
			c-0.609-1.105-1.308-2.158-1.988-3.22c-0.328-0.537-0.717-1.037-1.076-1.554l-0.545-0.771l-0.273-0.383l-0.292-0.371l-1.163-1.485
			c-0.383-0.497-0.81-0.961-1.209-1.442l-0.612-0.716c-0.208-0.232-0.427-0.457-0.64-0.687c-0.435-0.455-0.848-0.923-1.295-1.364
			l-1.346-1.311c-0.449-0.431-0.931-0.834-1.393-1.253c-0.459-0.425-0.951-0.811-1.436-1.205l-0.728-0.592
			c-0.243-0.192-0.499-0.374-0.748-0.562c-0.988-0.757-2.016-1.466-3.06-2.147c-0.529-0.327-1.045-0.676-1.584-0.985
			c-0.542-0.307-1.071-0.634-1.621-0.922c-1.095-0.589-2.205-1.146-3.344-1.648l-0.851-0.376l-0.862-0.348
			c-0.573-0.239-1.158-0.44-1.739-0.653c-1.17-0.403-2.35-0.774-3.539-1.088l-0.896-0.219l-0.896-0.195
			c-0.301-0.057-0.599-0.118-0.893-0.165c-0.292-0.052-0.61-0.096-0.854-0.126l0.804-0.163l-1.632,1.015l-0.815,0.51l-0.777,0.564
			c-0.515,0.38-1.041,0.746-1.545,1.135l-1.469,1.236c-0.5,0.396-0.946,0.858-1.408,1.298l-0.689,0.667
			c-0.112,0.112-0.23,0.22-0.34,0.334l-0.322,0.355l-1.287,1.422c-0.415,0.483-0.805,0.994-1.209,1.489
			c-0.197,0.251-0.408,0.493-0.594,0.752l-0.555,0.784l-0.553,0.786l-0.28,0.392l-0.254,0.407l-1.017,1.632
			c-0.32,0.555-0.622,1.123-0.936,1.686c-0.321,0.553-0.589,1.139-0.871,1.717c-0.28,0.581-0.571,1.153-0.811,1.751
			c-0.251,0.596-0.515,1.182-0.753,1.78l-0.68,1.814c-0.225,0.604-0.408,1.224-0.615,1.835c-0.212,0.612-0.383,1.234-0.562,1.856
			c-0.181,0.621-0.364,1.24-0.514,1.873c-0.152,0.629-0.334,1.251-0.463,1.887l-0.412,1.9l-0.354,1.915l-0.305,1.925
			c-0.099,0.642-0.168,1.288-0.255,1.935c-0.154,1.291-0.278,2.585-0.371,3.884c-0.094,1.299-0.153,2.6-0.191,3.901
			c-0.024,1.3-0.031,2.604-0.009,3.902c0.016,0.648,0.034,1.299,0.065,1.944c0.031,0.64,0.071,1.307,0.128,1.905l-0.979-1.194
			c0.279,0.087,0.627,0.188,0.954,0.273c0.329,0.09,0.669,0.167,1.007,0.249c0.336,0.085,0.679,0.156,1.019,0.229
			c0.342,0.071,0.68,0.151,1.028,0.209c0.688,0.129,1.374,0.263,2.071,0.363l1.041,0.167l1.046,0.134l1.048,0.134l1.052,0.106
			c0.703,0.066,1.402,0.147,2.109,0.186l2.111,0.14l2.116,0.085c0.708,0.041,1.413,0.021,2.12,0.031
			c0.708,0.004,1.416,0.026,2.125-0.006l2.121-0.058c0.71-0.009,1.413-0.082,2.121-0.117c0.707-0.05,1.417-0.08,2.123-0.144
			l2.116-0.215c1.415-0.11,2.816-0.334,4.225-0.512l0.529-0.07l0.264-0.036l0.134-0.019l0.034-0.004
			c0.034-0.006-0.032,0.008-0.021,0.004l0.019-0.004l0.063-0.011l1.058-0.204l1.058-0.203c0.348-0.068,0.709-0.126,1.036-0.227
			l2.014-0.534c0.338-0.082,0.673-0.198,1.008-0.311l1.002-0.334l1.006-0.334c0.333-0.117,0.661-0.252,0.989-0.377
			c0.657-0.261,1.323-0.501,1.978-0.779l1.943-0.864c0.652-0.282,1.278-0.621,1.918-0.928l0.954-0.476l0.938-0.511
			c0.624-0.345,1.261-0.667,1.873-1.033c0.612-0.359,1.238-0.708,1.847-1.081l1.817-1.131l1.788-1.183
			c0.588-0.409,1.187-0.801,1.764-1.221C84.813,60.655,85.957,59.795,87.075,58.895z M87.075,58.895
			c-1.036,0.995-2.118,1.939-3.226,2.853c-0.55,0.464-1.119,0.902-1.679,1.355l-1.724,1.3l-1.756,1.257
			c-0.59,0.414-1.196,0.805-1.793,1.207c-0.594,0.412-1.217,0.778-1.832,1.156l-0.922,0.566l-0.943,0.532
			c-0.634,0.348-1.252,0.726-1.899,1.048l-1.937,0.983c-0.651,0.32-1.321,0.603-1.982,0.903c-0.329,0.146-0.661,0.303-0.995,0.442
			l-1.022,0.387l-1.018,0.388c-0.342,0.129-0.682,0.265-1.037,0.364l-2.116,0.656c-0.355,0.122-0.703,0.19-1.052,0.275l-1.046,0.244
			l-1.047,0.25l-0.065,0.014l-0.101,0.02l-0.135,0.022l-0.266,0.049l-0.538,0.094c-1.427,0.24-2.846,0.527-4.285,0.696l-2.155,0.282
			c-0.721,0.085-1.442,0.139-2.165,0.211c-0.721,0.06-1.442,0.153-2.167,0.185L44,76.759c-0.723,0.054-1.45,0.052-2.176,0.074
			c-0.728,0.008-1.453,0.049-2.179,0.027l-2.181-0.021c-0.728-0.016-1.455-0.059-2.18-0.093c-0.729-0.026-1.454-0.096-2.182-0.152
			l-1.088-0.09l-1.09-0.118l-1.087-0.12l-1.085-0.153c-0.724-0.091-1.447-0.219-2.17-0.339c-0.36-0.058-0.72-0.134-1.082-0.202
			c-0.362-0.069-0.723-0.14-1.083-0.222c-0.361-0.079-0.721-0.156-1.085-0.249c-0.369-0.088-0.711-0.178-1.117-0.298l-0.875-0.258
			l-0.105-0.937c-0.081-0.72-0.129-1.373-0.176-2.058c-0.045-0.678-0.077-1.351-0.104-2.028c-0.056-1.349-0.052-2.698-0.033-4.049
			c0.029-1.347,0.083-2.696,0.17-4.039c0.089-1.348,0.21-2.69,0.363-4.031c0.085-0.67,0.153-1.342,0.254-2.009l0.302-2.003
			l0.358-1.999l0.417-1.986c0.134-0.663,0.317-1.316,0.473-1.975c0.154-0.661,0.342-1.313,0.53-1.963
			c0.193-0.652,0.376-1.306,0.602-1.946c0.22-0.643,0.418-1.292,0.658-1.928l0.729-1.908c0.253-0.631,0.537-1.25,0.804-1.876
			c0.26-0.63,0.571-1.238,0.871-1.85c0.305-0.611,0.591-1.229,0.939-1.821c0.333-0.595,0.658-1.196,1.002-1.784l1.095-1.735
			l0.275-0.435l0.3-0.416l0.595-0.838l0.601-0.833c0.201-0.277,0.428-0.535,0.64-0.804c0.437-0.53,0.857-1.073,1.308-1.587
			l1.409-1.505l0.351-0.375c0.12-0.122,0.249-0.237,0.374-0.354l0.752-0.703c0.504-0.465,0.99-0.949,1.537-1.368l1.598-1.297
			c0.549-0.41,1.12-0.793,1.677-1.188l0.845-0.589l0.879-0.529l1.762-1.054l0.374-0.224l0.428,0.06l0.28,0.037l0.255,0.042
			c0.167,0.026,0.335,0.056,0.5,0.087c0.331,0.061,0.656,0.132,0.98,0.201l0.965,0.227l0.956,0.255
			c1.268,0.352,2.51,0.775,3.735,1.24c0.604,0.245,1.217,0.477,1.813,0.746l0.896,0.394l0.886,0.421
			c1.179,0.562,2.324,1.182,3.456,1.832c0.566,0.32,1.111,0.678,1.666,1.017c0.558,0.339,1.085,0.721,1.629,1.077
			c1.066,0.746,2.117,1.512,3.12,2.339c0.252,0.207,0.509,0.406,0.753,0.616l0.729,0.645c0.486,0.43,0.979,0.851,1.438,1.309
			c0.464,0.455,0.942,0.894,1.392,1.36l1.334,1.411c0.44,0.475,0.851,0.973,1.277,1.459c0.208,0.247,0.424,0.489,0.631,0.738
			l0.598,0.763c0.394,0.513,0.811,1.006,1.181,1.531l1.116,1.583l0.278,0.396l0.259,0.408l0.518,0.815
			c0.337,0.548,0.706,1.077,1.012,1.643c0.638,1.117,1.293,2.224,1.852,3.379c0.287,0.576,0.594,1.137,0.86,1.722l0.785,1.755
			l0.388,0.878c0.123,0.295,0.235,0.596,0.352,0.894l0.699,1.787c0.246,0.589,0.432,1.204,0.638,1.809l0.604,1.818
			C86.395,56.439,86.731,57.668,87.075,58.895z"/>
		<path d="M22.337,77.508c0,0,37.712,14.752,65.755-11.255l0.26,2.746C88.353,68.999,61.004,94.808,22.337,77.508z"/>
		<path d="M46.417,22.24c0,0,6.44,12.809,11.097,34.697c0,0-1.441-19.465-8.462-35.559l-1.966-3.237c0,0,0.016-1.05-3.183,1.158
			C43.331,19.694,45.544,21.25,46.417,22.24z"/>
		<path d="M21.099,52.718c-1.545,0.968-3.2,1.765-4.922,2.411c-0.43,0.162-0.867,0.304-1.308,0.441l-0.663,0.194l-0.67,0.172
			c-0.454,0.102-0.905,0.205-1.366,0.273c-0.229,0.043-0.459,0.076-0.689,0.099c-0.232,0.023-0.463,0.058-0.696,0.067
			c-0.235,0.014-0.469,0.031-0.704,0.038H9.375c-0.47-0.023-0.943-0.046-1.413-0.123l-0.354-0.052l-0.349-0.075
			c-0.235-0.055-0.47-0.094-0.699-0.176c-0.228-0.076-0.46-0.139-0.685-0.229l-0.667-0.285c-0.43-0.227-0.862-0.45-1.252-0.743
			l-0.302-0.208l-0.278-0.238c-0.179-0.161-0.38-0.304-0.542-0.486l-0.504-0.53c-0.16-0.181-0.299-0.378-0.452-0.568l-0.219-0.288
			l-0.195-0.306l-0.383-0.613l1.223-0.302c0.007,0.696,0.038,1.424,0.085,2.138c0.042,0.717,0.105,1.432,0.179,2.146
			c0.145,1.429,0.358,2.848,0.614,4.253c0.262,1.408,0.593,2.795,1.019,4.146c0.42,1.353,0.956,2.662,1.608,3.888
			c0.654,1.223,1.467,2.352,2.476,3.231c1.003,0.884,2.212,1.478,3.515,1.71c0.652,0.117,1.324,0.146,2,0.106
			c0.675-0.055,1.352-0.178,2.023-0.343c0.667-0.185,1.331-0.401,1.982-0.67c0.654-0.257,1.292-0.567,1.926-0.886l-0.307,0.605
			c-0.045-0.413-0.078-0.8-0.105-1.2c-0.031-0.396-0.052-0.793-0.071-1.189c-0.036-0.793-0.059-1.584-0.056-2.377l0.014-1.188
			l0.036-1.187l0.063-1.186c0.015-0.394,0.052-0.788,0.085-1.18c0.034-0.396,0.064-0.787,0.113-1.181l0.137-1.178l0.17-1.172
			c0.051-0.391,0.122-0.778,0.197-1.166l0.222-1.16l0.262-1.156c0.083-0.383,0.186-0.763,0.293-1.141L21.099,52.718z M21.099,52.718
			l-0.202,1.16c-0.071,0.386-0.134,0.773-0.181,1.162l-0.164,1.162l-0.125,1.17c-0.092,0.778-0.132,1.559-0.199,2.337l-0.054,1.169
			c-0.024,0.391-0.027,0.779-0.036,1.17c-0.004,0.389-0.024,0.779-0.02,1.171l0.002,1.169l0.024,1.168l0.05,1.167
			c0.042,0.777,0.092,1.554,0.156,2.33c0.036,0.384,0.069,0.771,0.112,1.157c0.042,0.383,0.094,0.771,0.146,1.14l0.061,0.405
			l-0.365,0.204c-0.652,0.359-1.312,0.711-2,1.013c-0.682,0.314-1.401,0.561-2.129,0.781c-0.737,0.2-1.491,0.356-2.265,0.433
			c-0.774,0.068-1.564,0.055-2.348-0.068c-0.781-0.121-1.557-0.351-2.273-0.697c-0.721-0.345-1.386-0.79-1.981-1.301
			c-1.195-1.029-2.111-2.3-2.839-3.629c-0.732-1.332-1.277-2.742-1.713-4.168c-0.436-1.427-0.77-2.876-1.029-4.33
			c-0.263-1.455-0.432-2.922-0.553-4.392c-0.059-0.733-0.105-1.469-0.135-2.204c-0.029-0.739-0.045-1.466-0.036-2.223l0.031-2.353
			l1.192,2.051l0.322,0.555l0.161,0.277l0.185,0.257c0.127,0.175,0.241,0.355,0.378,0.519l0.418,0.477
			c0.135,0.166,0.305,0.292,0.457,0.44l0.234,0.216l0.254,0.188c0.329,0.268,0.699,0.477,1.063,0.691l0.578,0.273
			c0.197,0.088,0.402,0.148,0.603,0.227c0.196,0.083,0.41,0.129,0.617,0.191l0.313,0.086l0.317,0.061
			c0.425,0.093,0.86,0.139,1.296,0.183l0.66,0.035c0.22,0.006,0.441-0.003,0.662,0c0.221,0.001,0.443-0.021,0.665-0.032
			c0.222-0.009,0.443-0.03,0.666-0.053c0.442-0.041,0.884-0.108,1.328-0.18l0.662-0.121l0.656-0.147
			c0.439-0.104,0.875-0.214,1.308-0.345c0.869-0.246,1.727-0.538,2.573-0.864C19.446,53.481,20.287,53.126,21.099,52.718z"/>
		<path d="M87.885,57.09c-0.259-0.735-0.521-1.471-0.804-2.2l-0.413-1.097c-0.136-0.364-0.289-0.725-0.432-1.086
			c-0.295-0.725-0.566-1.454-0.878-2.168l-0.46-1.075c-0.155-0.358-0.298-0.719-0.462-1.073l-0.974-2.121l-0.242-0.531l-0.264-0.517
			l-0.53-1.035l-0.53-1.035c-0.17-0.352-0.378-0.674-0.566-1.012l-1.165-2l-0.268-0.461l0.446-0.327
			c0.269-0.197,0.571-0.437,0.842-0.681c0.279-0.24,0.544-0.502,0.812-0.759c0.26-0.267,0.512-0.538,0.761-0.813
			c0.237-0.287,0.49-0.561,0.714-0.857c0.222-0.297,0.456-0.585,0.667-0.89l0.612-0.929l0.544-0.968
			c0.185-0.323,0.32-0.667,0.482-0.999c0.076-0.17,0.16-0.333,0.231-0.504l0.192-0.521l0.19-0.517
			c0.065-0.173,0.129-0.345,0.173-0.526l0.3-1.065c0.056-0.177,0.089-0.359,0.119-0.54l0.103-0.544
			c0.059-0.365,0.154-0.723,0.168-1.092l0.096-1.104c0.049-0.368,0.021-0.739,0.021-1.108l-0.008-1.111l-0.018-1.975l1.326,1.409
			c0.612,0.655,1.18,1.301,1.734,1.977c0.553,0.674,1.088,1.359,1.607,2.058c1.037,1.397,2.016,2.844,2.907,4.342
			c0.45,0.75,0.864,1.521,1.258,2.302c0.394,0.781,0.758,1.578,1.093,2.389c0.67,1.624,1.204,3.316,1.491,5.069
			c0.29,1.746,0.344,3.56-0.003,5.325c-0.35,1.757-1.11,3.432-2.188,4.84c-0.544,0.7-1.169,1.331-1.832,1.903
			c-0.661,0.58-1.386,1.072-2.124,1.53c-0.378,0.216-0.751,0.438-1.14,0.626c-0.383,0.203-0.777,0.386-1.173,0.561
			c-0.389,0.182-0.802,0.321-1.198,0.484C88.7,56.817,88.29,56.948,87.885,57.09z M87.885,57.09
			c0.392-0.178,0.787-0.348,1.171-0.536c0.382-0.198,0.771-0.376,1.141-0.591c0.376-0.202,0.749-0.41,1.107-0.64
			c0.369-0.215,0.715-0.464,1.066-0.702c0.683-0.503,1.357-1.015,1.951-1.611c0.6-0.59,1.144-1.227,1.617-1.909
			c0.943-1.368,1.558-2.936,1.791-4.561c0.259-1.624,0.154-3.296-0.181-4.922c-0.34-1.625-0.867-3.221-1.54-4.756
			c-0.672-1.538-1.477-3.023-2.35-4.467c-0.877-1.444-1.836-2.842-2.856-4.194c-0.511-0.673-1.037-1.336-1.577-1.988
			c-0.54-0.647-1.094-1.303-1.654-1.901l1.309-0.565l0.004,1.195c-0.006,0.398,0.021,0.799-0.033,1.195l-0.112,1.193
			c-0.022,0.399-0.126,0.788-0.192,1.183l-0.114,0.589c-0.035,0.197-0.071,0.392-0.134,0.585l-0.334,1.152
			c-0.049,0.193-0.125,0.379-0.201,0.565l-0.217,0.557l-0.224,0.558c-0.08,0.185-0.171,0.361-0.258,0.54
			c-0.184,0.356-0.342,0.723-0.546,1.065l-0.61,1.028l-0.679,0.983c-0.232,0.324-0.491,0.627-0.732,0.943
			c-0.251,0.309-0.525,0.598-0.787,0.892c-0.277,0.287-0.561,0.567-0.846,0.841c-0.297,0.269-0.59,0.537-0.904,0.786
			c-0.312,0.257-0.621,0.488-0.981,0.73l0.18-0.786l1.118,2.093c0.182,0.35,0.387,0.689,0.537,1.055l0.483,1.077l0.486,1.077
			l0.238,0.538l0.218,0.549l0.867,2.189c0.141,0.368,0.261,0.741,0.395,1.108l0.389,1.111c0.131,0.369,0.262,0.739,0.379,1.113
			l0.351,1.122c0.115,0.373,0.24,0.744,0.347,1.121l0.323,1.13C87.505,55.575,87.696,56.333,87.885,57.09z"/>
	</g>
</g>
</svg>
